HIERARCHY
ROOT Hips
{
 OFFSET 0.000000 0.000000 0.000000
 CHANNELS 6 Xposition Yposition Zposition Yrotation Xrotation Zrotation
 JOINT Chest
 {
  OFFSET 0.000000 11.395451 -0.039534
  CHANNELS 3 Yrotation Xrotation Zrotation
  JOINT Chest2
  {
   OFFSET 0.000000 9.398669 0.071813
   CHANNELS 3 Yrotation Xrotation Zrotation
   JOINT Chest3
   {
    OFFSET 0.000000 8.489801 0.000000
    CHANNELS 3 Yrotation Xrotation Zrotation
    JOINT Chest4
    {
     OFFSET 0.000000 8.489801 0.000000
     CHANNELS 3 Yrotation Xrotation Zrotation
     JOINT Neck
     {
      OFFSET 0.000000 12.404889 0.000000
      CHANNELS 3 Yrotation Xrotation Zrotation
      JOINT Head
      {
       OFFSET 0.000000 8.903270 0.092239
       CHANNELS 3 Yrotation Xrotation Zrotation
       End Site
       {
        OFFSET 0.000000 17.592497 0.007158
       }
      }
     }
     JOINT RightCollar
     {
      OFFSET -3.196775 6.966722 0.000000
      CHANNELS 3 Yrotation Xrotation Zrotation
      JOINT RightShoulder
      {
       OFFSET -15.955896 0.000000 0.000000
       CHANNELS 3 Yrotation Xrotation Zrotation
       JOINT RightElbow
       {
        OFFSET -24.792472 0.000000 0.000000
        CHANNELS 3 Yrotation Xrotation Zrotation
        JOINT RightWrist
        {
         OFFSET -20.900115 0.000000 0.025002
         CHANNELS 3 Yrotation Xrotation Zrotation
         End Site
         {
          OFFSET -16.056692 0.000000 0.000000
         }
        }
       }
      }
     }
     JOINT LeftCollar
     {
      OFFSET 3.196775 6.966722 0.000000
      CHANNELS 3 Yrotation Xrotation Zrotation
      JOINT LeftShoulder
      {
       OFFSET 15.955896 0.000000 0.000000
       CHANNELS 3 Yrotation Xrotation Zrotation
       JOINT LeftElbow
       {
        OFFSET 24.792472 0.000000 0.000000
        CHANNELS 3 Yrotation Xrotation Zrotation
        JOINT LeftWrist
        {
         OFFSET 20.900115 0.000000 0.025002
         CHANNELS 3 Yrotation Xrotation Zrotation
         End Site
         {
          OFFSET 16.056692 0.000000 0.000000
         }
        }
       }
      }
     }
    }
   }
  }
 }
 JOINT RightHip
 {
  OFFSET -9.568995 0.193718 0.019767
  CHANNELS 3 Yrotation Xrotation Zrotation
  JOINT RightKnee
  {
   OFFSET 0.000000 -56.649296 0.015402
   CHANNELS 3 Yrotation Xrotation Zrotation
   JOINT RightAnkle
   {
    OFFSET 0.000000 -41.365147 0.021264
    CHANNELS 3 Yrotation Xrotation Zrotation
    JOINT RightToe
    {
     OFFSET 0.000000 -7.465940 17.672538
     CHANNELS 3 Yrotation Xrotation Zrotation
     End Site
     {
      OFFSET 0.000000 -1.736315 7.837145
     }
    }
   }
  }
 }
 JOINT LeftHip
 {
  OFFSET 9.568995 0.193718 0.019767
  CHANNELS 3 Yrotation Xrotation Zrotation
  JOINT LeftKnee
  {
   OFFSET 0.000000 -56.649296 0.015402
   CHANNELS 3 Yrotation Xrotation Zrotation
   JOINT LeftAnkle
   {
    OFFSET 0.000000 -41.365147 0.021264
    CHANNELS 3 Yrotation Xrotation Zrotation
    JOINT LeftToe
    {
     OFFSET 0.000000 -7.465940 17.672538
     CHANNELS 3 Yrotation Xrotation Zrotation
     End Site
     {
      OFFSET 0.000000 -1.736315 7.837145
     }
    }
   }
  }
 }
}
MOTION
Frames: 8
Frame Time: 0.016667
-14.824540 104.237828 331.619331 -47.717141 0.029411 -1.533963 -1.311890 6.539940 2.599691 -0.618772 2.899270 1.171995 -0.618772 2.899270 1.171995 -0.469546 2.173278 0.881748 0.172073 14.431142 0.484171 0.135519 -9.384851 0.843574 0.255385 1.499107 6.544610 18.450118 -16.419346 44.256972 43.147383 -40.021649 27.901456 -15.249208 -15.567263 8.479605 1.582117 2.616132 -5.352550 5.519964 -15.032633 -52.773163 -20.674273 -55.587137 -57.366731 20.084670 -16.869781 2.286506 7.076245 1.126706 5.019626 -1.261011 20.502125 -0.689709 6.781704 -19.341529 -2.765661 0.046122 -2.080933 -2.575746 10.015876 -21.658209 -0.758898 4.931931 4.936765 -0.906617 3.134930 -3.818031 -6.002536 0.000000 0.000000 0.000000
-15.856548 104.020118 333.051406 -48.500258 -0.168432 -1.695333 -1.019450 6.461949 2.510448 -0.487365 2.866372 1.128109 -0.487368 2.866340 1.128096 -0.370747 2.148849 0.848177 0.148951 14.460527 0.480554 0.093590 -9.330140 0.845632 0.199885 1.696211 6.488469 18.231257 -16.168297 44.490143 43.188291 -40.020636 28.009720 -15.081736 -15.647957 8.535753 1.757164 2.488769 -5.354388 5.705436 -14.946420 -52.644039 -20.700470 -55.287221 -57.699593 20.239194 -16.792827 2.425076 7.277054 1.473556 4.917570 -1.534546 22.231376 -0.762165 7.593294 -19.922537 -2.243896 0.093875 -3.337064 -3.355845 9.660719 -21.628781 -1.076726 2.872525 6.721217 -0.178445 2.911332 -3.362204 -4.004365 0.000000 -0.000000 -0.000000
-16.889671 103.801698 334.529803 -49.474620 -0.358904 -1.825629 -0.636872 6.379941 2.399943 -0.315648 2.832163 1.073676 -0.315648 2.832134 1.073664 -0.241667 2.123537 0.806544 0.110626 14.463213 0.460849 0.029190 -9.324998 0.823435 0.146265 2.041973 6.383110 18.036668 -16.015649 44.720841 43.268773 -40.059384 28.050345 -14.882179 -15.741140 8.620530 1.937155 2.359409 -5.345901 5.974524 -14.938233 -52.566363 -20.735977 -54.910533 -58.092899 20.409956 -16.692258 2.579669 7.225195 1.680960 4.702417 -1.559145 24.307938 -0.882918 8.643188 -20.420438 -1.676876 0.175360 -4.919507 -4.137606 9.450544 -21.395593 -1.519605 -0.756320 8.448802 0.678021 3.583124 -2.682585 -1.682503 0.000000 0.000000 0.000000
-17.964546 103.651764 336.014400 -50.417310 -0.614839 -1.839864 -0.288553 6.305479 2.200421 -0.157985 2.801048 0.980367 -0.157985 2.801048 0.980367 -0.122962 2.100539 0.735853 0.083788 14.506183 0.479677 -0.028243 -9.244969 0.869065 0.104311 2.247948 6.409296 17.676021 -15.790431 45.091622 43.241864 -40.005276 28.127107 -14.683551 -15.768600 8.709003 1.996658 2.275564 -5.287049 6.330128 -14.909674 -52.492614 -20.761491 -54.520569 -58.399795 20.528337 -16.590707 2.722364 7.256327 1.792770 4.351578 -1.612448 26.647604 -0.976125 9.606727 -20.400073 -0.933989 0.320372 -7.111095 -5.152536 9.527401 -20.920238 -1.862093 -4.489830 9.857781 1.046403 5.295902 -1.734208 -0.213532 0.000000 0.000000 0.000000
-19.154869 103.601458 337.495692 -51.293907 -1.016290 -1.683560 0.001869 6.245825 1.850669 -0.024127 2.775894 0.821239 -0.024132 2.775902 0.821240 -0.021830 2.081912 0.615919 0.086234 14.631487 0.578925 -0.061012 -9.011787 1.053961 0.065149 2.123171 6.738991 17.055170 -15.322991 45.664834 42.981746 -39.800577 28.304588 -14.474065 -15.677581 8.793707 1.855785 2.254380 -5.131983 6.864684 -14.819270 -52.403149 -20.736149 -54.065151 -58.589466 20.542203 -16.487881 2.838443 7.607185 1.944165 3.902004 -1.705810 29.177114 -1.005230 10.304829 -19.789623 -0.031137 0.590061 -10.161173 -6.449400 10.433275 -20.047533 -2.055422 -9.199527 10.536204 0.517523 9.210504 -0.452693 -0.240330 0.000000 -0.000000 0.000000
-20.386945 103.619639 338.983185 -52.141563 -1.476989 -1.407572 0.261816 6.192553 1.412825 0.097292 2.752996 0.623474 0.097286 2.752996 0.623471 0.070138 2.064857 0.467073 0.100718 14.797706 0.716168 -0.085006 -8.702300 1.304923 0.026304 1.861447 7.202348 16.272253 -14.769596 46.359149 42.621890 -39.498705 28.508933 -14.264752 -15.521934 8.884741 1.593429 2.284395 -4.930493 7.486112 -14.711804 -52.315023 -20.702743 -53.595452 -58.689055 20.502609 -16.382356 2.943643 8.044886 2.001039 3.323854 -1.812442 31.973306 -0.990137 10.955795 -18.661806 1.044034 1.009691 -13.811127 -8.017928 11.613953 -18.921145 -2.125338 -14.057573 10.690578 -0.323871 14.031622 0.948716 -1.096366 0.000000 0.000000 0.000000
-21.480326 103.682078 340.465272 -52.843373 -1.820237 -1.089692 0.441256 6.135548 1.001999 0.182559 2.727856 0.438833 0.182559 2.727856 0.438833 0.134933 2.046024 0.328248 0.101001 14.946559 0.819393 -0.122258 -8.424971 1.497192 0.019698 1.749195 7.467611 15.422211 -14.445690 47.113455 42.402384 -39.136801 28.641017 -14.122681 -15.382051 8.982148 1.324341 2.367459 -4.784801 7.922224 -14.613677 -52.241045 -20.768262 -53.328835 -58.638592 20.494630 -16.294915 3.056403 8.209254 1.599133 2.496092 -2.151609 35.185010 -0.962046 11.863899 -16.789211 2.451192 1.547039 -17.594059 -9.973882 11.590734 -17.952312 -2.014541 -15.086400 10.998480 -0.640046 16.192392 1.894598 -1.919522 0.000000 0.000000 0.000000
-22.301892 103.799634 341.941901 -53.260301 -1.934178 -0.737883 0.474754 6.060000 0.654037 0.202152 2.694040 0.284069 0.202152 2.694056 0.284073 0.150332 2.020643 0.212125 0.075504 15.064338 0.864059 -0.185512 -8.205498 1.589519 0.099969 1.909685 7.347278 14.368502 -14.570916 48.034763 42.410985 -38.645856 28.691837 -14.101968 -15.267037 9.084070 1.050170 2.517395 -4.754197 8.069692 -14.518963 -52.241831 -21.034659 -53.413384 -58.305564 20.556263 -16.223479 3.214634 8.041090 0.487320 1.265910 -3.029543 38.993467 -0.952907 13.419528 -13.770830 4.274087 2.350887 -22.001056 -12.651201 8.685078 -17.395707 -1.485946 -8.082433 11.799389 0.134983 12.851174 2.119086 -2.443586 0.000000 0.000000 0.000000
